<svg width="17" height="14" viewBox="0 0 17 14" fill="none" xmlns="http://www.w3.org/2000/svg">
<path d="M15.1797 3.67969V2L8.5 6.17969L1.82031 2V3.67969L8.5 7.82031L15.1797 3.67969ZM15.1797 0.320312C15.6224 0.320312 16 0.489583 16.3125 0.828125C16.651 1.16667 16.8203 1.55729 16.8203 2V12C16.8203 12.4427 16.651 12.8333 16.3125 13.1719C16 13.5104 15.6224 13.6797 15.1797 13.6797H1.82031C1.3776 13.6797 0.986979 13.5104 0.648438 13.1719C0.335938 12.8333 0.179688 12.4427 0.179688 12V2C0.179688 1.55729 0.335938 1.16667 0.648438 0.828125C0.986979 0.489583 1.3776 0.320312 1.82031 0.320312H15.1797Z" fill="#B8B8B8"/>
</svg>
