<svg width="30" height="30" viewBox="0 0 30 30" fill="none" xmlns="http://www.w3.org/2000/svg">
<path d="M25.562 25.5632H21.1166V18.6014C21.1166 16.9412 21.0871 14.8049 18.8045 14.8049C16.4894 14.8049 16.1346 16.6129 16.1346 18.4816V25.5632H11.6907V11.2464H15.9587V13.2023H16.0178C16.8886 11.715 18.5059 10.8265 20.2282 10.8901C24.7341 10.8901 25.5635 13.8543 25.5635 17.7084L25.562 25.5632ZM6.67472 9.28897C5.24959 9.28897 4.09501 8.13434 4.09501 6.70917C4.09501 5.28399 5.24959 4.12936 6.67472 4.12936C8.09984 4.12936 9.25442 5.28399 9.25442 6.70917C9.25442 8.13434 8.09984 9.28897 6.67472 9.28897ZM8.89666 25.5632H4.44685V11.2464H8.89666V25.5632ZM27.7781 0.00168033H2.21308C1.00527 -0.0116252 0.0147834 0.956725 0 2.16458V27.8355C0.0147834 29.0448 1.00527 30.0131 2.21308 29.9998H27.7781C28.9888 30.0146 29.9837 29.0463 30 27.8355V2.1631C29.9823 0.952289 28.9873 -0.0160605 27.7781 0.000201868" fill="#B8B8B8"/>
</svg>
