<svg width="15" height="16" viewBox="0 0 15 16" fill="none" xmlns="http://www.w3.org/2000/svg">
<path d="M3.00781 6.98438C4.25781 9.40625 6.09375 11.2422 8.51562 12.4922L10.3516 10.6562C10.612 10.3958 10.8984 10.3307 11.2109 10.4609C12.1484 10.7734 13.138 10.9297 14.1797 10.9297C14.4141 10.9297 14.6094 11.0078 14.7656 11.1641C14.9219 11.3203 15 11.5156 15 11.75V14.6797C15 14.9141 14.9219 15.1094 14.7656 15.2656C14.6094 15.4219 14.4141 15.5 14.1797 15.5C10.2734 15.5 6.92708 14.1198 4.14062 11.3594C1.38021 8.57292 0 5.22656 0 1.32031C0 1.08594 0.078125 0.890625 0.234375 0.734375C0.390625 0.578125 0.585938 0.5 0.820312 0.5H3.75C3.98438 0.5 4.17969 0.578125 4.33594 0.734375C4.49219 0.890625 4.57031 1.08594 4.57031 1.32031C4.57031 2.36198 4.72656 3.35156 5.03906 4.28906C5.14323 4.6276 5.07812 4.91406 4.84375 5.14844L3.00781 6.98438Z" fill="#B8B8B8"/>
</svg>
