<svg width="18" height="12" viewBox="0 0 18 12" fill="none" xmlns="http://www.w3.org/2000/svg">
<path d="M11.5 0.179688L10.3281 1.35156L14.1562 5.17969H0.679688V6.82031H14.1562L10.3281 10.6484L11.5 11.8203L17.3203 6L11.5 0.179688Z" fill="#17BF1F"/>
<path d="M11.5 0.179688L11.8536 -0.173866L11.5 -0.52742L11.1464 -0.173866L11.5 0.179688ZM10.3281 1.35156L9.97457 0.998009L9.62102 1.35156L9.97457 1.70512L10.3281 1.35156ZM14.1562 5.17969V5.67969H15.3634L14.5098 4.82613L14.1562 5.17969ZM0.679688 5.17969V4.67969H0.179688V5.17969H0.679688ZM0.679688 6.82031H0.179688V7.32031H0.679688V6.82031ZM14.1562 6.82031L14.5098 7.17387L15.3634 6.32031H14.1562V6.82031ZM10.3281 10.6484L9.97457 10.2949L9.62102 10.6484L9.97457 11.002L10.3281 10.6484ZM11.5 11.8203L11.1464 12.1739L11.5 12.5274L11.8536 12.1739L11.5 11.8203ZM17.3203 6L17.6739 6.35355L18.0274 6L17.6739 5.64645L17.3203 6ZM11.1464 -0.173866L9.97457 0.998009L10.6817 1.70512L11.8536 0.533241L11.1464 -0.173866ZM9.97457 1.70512L13.8027 5.53324L14.5098 4.82613L10.6817 0.998009L9.97457 1.70512ZM14.1562 4.67969H0.679688V5.67969H14.1562V4.67969ZM0.179688 5.17969V6.82031H1.17969V5.17969H0.179688ZM0.679688 7.32031H14.1562V6.32031H0.679688V7.32031ZM13.8027 6.46676L9.97457 10.2949L10.6817 11.002L14.5098 7.17387L13.8027 6.46676ZM9.97457 11.002L11.1464 12.1739L11.8536 11.4668L10.6817 10.2949L9.97457 11.002ZM11.8536 12.1739L17.6739 6.35355L16.9668 5.64645L11.1464 11.4668L11.8536 12.1739ZM17.6739 5.64645L11.8536 -0.173866L11.1464 0.533241L16.9668 6.35355L17.6739 5.64645Z" fill="#0ABF04"/>
</svg>
